<?xml version="1.0" encoding="UTF-8" standalone="no"?>
<svg
   xmlns:dc="http://purl.org/dc/elements/1.1/"
   xmlns:cc="http://creativecommons.org/ns#"
   xmlns:rdf="http://www.w3.org/1999/02/22-rdf-syntax-ns#"
   xmlns:svg="http://www.w3.org/2000/svg"
   xmlns="http://www.w3.org/2000/svg"
   viewBox="0 0 3000 3000"
   height="3000"
   width="3000"
   xml:space="preserve"
   id="svg2"
   version="1.1"><metadata
     id="metadata8"><rdf:RDF><cc:Work
         rdf:about=""><dc:format>image/svg+xml</dc:format><dc:type
           rdf:resource="http://purl.org/dc/dcmitype/StillImage" /></cc:Work></rdf:RDF></metadata><defs
     id="defs6" /><g
     transform="matrix(1.3333333,0,0,-1.3333333,0,3000)"
     id="g10"><g
       transform="scale(0.1)"
       id="g12"><g
         transform="scale(1.38037)"
         id="g14"><path
           id="path16"
           style="fill:#ffffff;fill-opacity:1;fill-rule:nonzero;stroke:none"
           d="M 66.6998,16300 H 16233.3 c 37,0 66.7,-29.7 66.7,-66.7 L 16300,66.6998 C 16300,29.739 16270.3,0 16233.3,0 H 66.6998 C 29.739,0 0,29.739 0,66.6998 V 16233.3 c 0,37 29.739,66.7 66.6998,66.7 z" /></g><g
         transform="scale(1.20941)"
         id="g18"><path
           id="path20"
           style="fill:#1a1a1a;fill-opacity:1;fill-rule:nonzero;stroke:none"
           d="m 12384.5,7339.72 -500.7,-218.28 c 0,0 -950,-1399.3 -1296.6,-2015.53 0,0 -141.2,-1707.4 1463.5,-1514.84 449.3,77.03 1322.3,654.69 1322.3,654.69 0,0 873,-577.66 1322.3,-654.69 1604.7,-192.56 1463.5,1514.84 1463.5,1514.84 -346.6,616.23 -1296.6,2015.53 -1296.6,2015.53 l -500.7,218.28 -988.5,-333.8 z" /></g><g
         transform="scale(1.20941)"
         id="g22"><path
           id="path24"
           style="fill:none;stroke:#000000;stroke-width:17.9727993;stroke-linecap:butt;stroke-linejoin:miter;stroke-miterlimit:4;stroke-dasharray:none;stroke-opacity:1"
           d="m 12384.5,7339.72 -500.7,-218.28 c 0,0 -950,-1399.3 -1296.6,-2015.53 0,0 -141.2,-1707.4 1463.5,-1514.84 449.3,77.03 1322.3,654.69 1322.3,654.69 0,0 873,-577.66 1322.3,-654.69 1604.7,-192.56 1463.5,1514.84 1463.5,1514.84 -346.6,616.23 -1296.6,2015.53 -1296.6,2015.53 l -500.7,218.28 -988.5,-333.8 z" /></g><g
         transform="scale(1.06749)"
         id="g26"><path
           id="path28"
           style="fill:#b3b3b3;fill-opacity:1;fill-rule:nonzero;stroke:none"
           d="m 16096.4,12548 h -1890.8 l -203.6,-363.6 h 2298 z" /></g><g
         transform="scale(1.19893)"
         id="g30"><path
           id="path32"
           style="fill:#e9e9e9;fill-opacity:1;fill-rule:nonzero;stroke:none"
           d="m 14331.6,10920.5 c 0,0 -302.3,-535.8 -841.7,-1089.92 -388.4,416.82 -837.2,989.12 -837.2,989.12 l -185.9,28.9 c 0,0 -774.4,-458.5 -1046.3,-808.1 -401.5,-414.43 -740.8,-1613.61 -740.8,-1613.61 90.7,-1411.54 323.8,-1670.56 531,-1605.79 l 777,362.59 c 556.8,-116.57 1502.2,-116.54 1502.2,-116.54 0,0 945.3,-0.03 1502.2,116.54 l 777,-362.59 c 207.2,-64.77 440.3,194.25 530.9,1605.79 0,0 -339.3,1199.18 -740.7,1613.61 -272,349.6 -1046.4,808.1 -1046.4,808.1 z" /></g><g
         transform="scale(1.04754)"
         id="g34"><path
           id="path36"
           style="fill:#fcb9b2;fill-opacity:1;fill-rule:nonzero;stroke:none"
           d="m 14694.1,12879.9 -115.3,-440.2 860.6,-1188.4 860.6,1188.4 -115.3,440.2 -745.3,-104.8 z" /></g><path
         id="path38"
         style="fill:#c0c0c0;fill-opacity:1;fill-rule:nonzero;stroke:none"
         d="m 14946.9,13006.7 1226.6,-1946.2 v 725.8 l -1009.2,1608.5 z" /><g
         transform="scale(1.06749)"
         id="g40"><path
           id="path42"
           style="fill:#c0c0c0;fill-opacity:1;fill-rule:nonzero;stroke:none"
           d="m 16096.4,12548 -945.4,-1506.9 -1512.7,-2521.93 390.5,-40 2271.2,3705.23 z" /></g><g
         transform="scale(1.04653)"
         id="g44"><path
           id="path46"
           style="fill:#000000;fill-opacity:1;fill-rule:nonzero;stroke:none"
           d="m 14668,6805.59 c 0,0 474.8,-185.44 593.5,-363.48 326.4,-971.74 -652.8,-1557.75 -652.8,-1557.75 l 845.6,348.62 845.7,-348.62 c 0,0 -979.2,586.01 -652.8,1557.75 118.7,178.04 593.5,363.48 593.5,363.48 z" /></g><path
         id="path48"
         style="fill:#fcb9b2;fill-opacity:1;fill-rule:nonzero;stroke:none"
         d="m 14224.9,8791.33 c -535.6,186.33 -939.3,-333.83 -939.3,-333.83 0,0 434.8,-675.39 690.9,-853.91 69.9,-287.26 279.5,-558.94 279.5,-558.94 l 155.3,-388.17 c 496.8,-419.21 1218.7,209.61 1086.8,543.4 -23.3,388.17 -295,605.55 -295,605.55 -372.6,225.12 -722,279.45 -722,279.45 -201.8,333.83 -256.2,706.45 -256.2,706.45 z" /><g
         transform="scale(1.16499)"
         id="g50"><path
           id="path52"
           style="fill:#fcb9b2;fill-opacity:1;fill-rule:nonzero;stroke:none"
           d="m 15493.7,7546.26 c 459.8,159.94 806.3,-286.56 806.3,-286.56 0,0 -373.2,-579.74 -593,-732.97 -60,-246.58 -240,-479.78 -240,-479.78 l -133.2,-333.2 c -426.5,-359.84 -1046.2,179.93 -932.9,466.45 20,333.19 253.2,519.78 253.2,519.78 319.8,193.24 619.7,239.88 619.7,239.88 173.3,286.55 219.9,606.4 219.9,606.4 z" /></g><g
         transform="scale(1.10273)"
         id="g54"><path
           id="path56"
           style="fill:#000000;fill-opacity:1;fill-rule:nonzero;stroke:none"
           d="m 13033.5,8278.25 c 183,-323.84 0,-507.26 0,-507.26 0,0 787,-136.67 1633.2,-126.71 846.3,-9.96 1633.3,126.71 1633.3,126.71 0,0 -183,183.42 0,507.26 0,0 -508.2,-178.43 -1633.3,-178.43 -1125,0 -1633.2,178.43 -1633.2,178.43 z" /></g><path
         id="path58"
         style="fill:#c0c0c0;fill-opacity:1;fill-rule:nonzero;stroke:none"
         d="m 14372.4,9172.15 -181.8,790.47 164.6,636.78 z" /><g
         transform="scale(1.11389)"
         id="g60"><path
           id="path62"
           style="fill:#c0c0c0;fill-opacity:1;fill-rule:nonzero;stroke:none"
           d="m 16136.7,8234.34 163.3,709.65 -147.8,571.65 z" /></g><g
         transform="scale(1.04509)"
         id="g64"><path
           id="path66"
           style="fill:#fb9c92;fill-opacity:1;fill-rule:nonzero;stroke:none"
           d="m 16300,12854 c 0,-314.4 -369.1,-569.2 -824.3,-569.2 -455.3,0 -824.3,254.8 -824.3,569.2 0,314.5 369,569.3 824.3,569.3 455.2,0 824.3,-254.8 824.3,-569.3 z" /></g><g
         transform="scale(1.16237)"
         id="g68"><path
           id="path70"
           style="fill:#000000;fill-opacity:1;fill-rule:nonzero;stroke:none"
           d="m 12779.2,15142.9 c -1285.5,-532.7 -729.6,-2316.3 -729.6,-2316.3 l 3729.2,-11.5 c 0,0 226.4,-183 521.2,46.3 -182.2,786.9 -313,1585.9 -824.6,2083.6 -705.8,686.6 -1931.8,952.9 -2696.2,197.9 z" /></g><g
         transform="scale(1.16237)"
         id="g72"><path
           id="path74"
           style="fill:none;stroke:#000000;stroke-width:22.93029976;stroke-linecap:butt;stroke-linejoin:miter;stroke-miterlimit:4;stroke-dasharray:none;stroke-opacity:1"
           d="m 12779.2,15142.9 c -1285.5,-532.7 -729.6,-2316.3 -729.6,-2316.3 l 3729.2,-11.5 c 0,0 226.4,-183 521.2,46.3 -182.2,786.9 -313,1585.9 -824.6,2083.6 -705.8,686.6 -1931.8,952.9 -2696.2,197.9 z" /></g><path
         id="path76"
         style="fill:#000000;fill-opacity:1;fill-rule:nonzero;stroke:none"
         d="m 14400.6,13603.4 c 0,0 67.3,552 -228.9,875 l 955.8,-350 c 0,0 -296.1,-551.9 -726.9,-525 z" /><path
         id="path78"
         style="fill:none;stroke:#000000;stroke-width:26.65329933;stroke-linecap:butt;stroke-linejoin:miter;stroke-miterlimit:4;stroke-dasharray:none;stroke-opacity:1"
         d="m 14400.6,13603.4 c 0,0 67.3,552 -228.9,875 l 955.8,-350 c 0,0 -296.1,-551.9 -726.9,-525 z" /><g
         transform="scale(1.11504)"
         id="g80"><path
           id="path82"
           style="fill:#000000;fill-opacity:1;fill-rule:nonzero;stroke:none"
           d="m 16094.8,12199.9 c 0,0 -60.4,495 205.2,784.7 l -857.2,-313.8 c 0,0 265.6,-495.1 652,-470.9 z" /></g><g
         transform="scale(1.11504)"
         id="g84"><path
           id="path86"
           style="fill:none;stroke:#000000;stroke-width:23.90340042;stroke-linecap:butt;stroke-linejoin:miter;stroke-miterlimit:4;stroke-dasharray:none;stroke-opacity:1"
           d="m 16094.8,12199.9 c 0,0 -60.4,495 205.2,784.7 l -857.2,-313.8 c 0,0 265.6,-495.1 652,-470.9 z" /></g><g
         transform="scale(1.15481)"
         id="g88"><path
           id="path90"
           style="fill:#fcb9b2;fill-opacity:1;fill-rule:nonzero;stroke:none"
           d="m 14005.3,15164.1 c 0,0 -1808.3,-408.8 -1775.3,-1958.5 -486.3,-33 -519.3,-875.5 181.4,-916.7 0,0 460.8,-926.5 1593.9,-926.5 1133.1,0 1594,926.5 1594,926.5 700.7,41.2 667.7,883.7 181.4,916.7 32.9,1549.7 -1775.4,1958.5 -1775.4,1958.5 z" /></g><path
         id="path92"
         style="fill:#000000;fill-opacity:1;fill-rule:nonzero;stroke:none"
         d="m 15509,15057.3 c 0,-126.4 -84.4,-228.9 -188.4,-228.9 -104.1,0 -188.5,102.5 -188.5,228.9 0,126.4 84.4,228.9 188.5,228.9 104,0 188.4,-102.5 188.4,-228.9 z" /><g
         transform="scale(1.05613)"
         id="g94"><path
           id="path96"
           style="fill:#000000;fill-opacity:1;fill-rule:nonzero;stroke:none"
           d="m 16300,14257.1 c 0,-119.7 -79.9,-216.7 -178.5,-216.7 -98.5,0 -178.4,97 -178.4,216.7 0,119.7 79.9,216.7 178.4,216.7 98.6,0 178.5,-97 178.5,-216.7 z" /></g><g
         transform="scale(1.03758)"
         id="g98"><path
           id="path100"
           style="fill:#ffffff;fill-opacity:1;fill-rule:nonzero;stroke:none"
           d="m 16300,13551.9 c 0,-180.4 -135.8,-347 -356.1,-437.1 -220.4,-90.2 -491.9,-90.2 -712.3,0 -220.4,90.1 -356.2,256.7 -356.2,437.1 z" /></g><g
         transform="scale(1.1386)"
         id="g102"><path
           id="path104"
           style="fill:#000000;fill-opacity:1;fill-rule:nonzero;stroke:none"
           d="m 12454,13598 c 804,23.7 1043.9,957 1043.9,957 579.3,-709.5 2119.8,-494.9 2557.3,-1050.6 l 244.8,293.9 -650.3,1466.1 -2092.7,165.5 -1194.1,-874.9 -153.7,-756.7" /></g><g
         transform="scale(1.1386)"
         id="g106"><path
           id="path108"
           style="fill:none;stroke:#000000;stroke-width:23.40880013;stroke-linecap:butt;stroke-linejoin:miter;stroke-miterlimit:4;stroke-dasharray:none;stroke-opacity:1"
           d="m 12454,13598 c 804,23.7 1043.9,957 1043.9,957 579.3,-709.5 2119.8,-494.9 2557.3,-1050.6 l 244.8,293.9 -650.3,1466.1 -2092.7,165.5 -1194.1,-874.9 -153.7,-756.7" /></g><path
         id="path110"
         style="fill:#000000;fill-opacity:1;fill-rule:nonzero;stroke:none"
         d="m 14336.6,15659.2 5.9,-1045.6 c -314.1,742.5 -160.9,902.3 -484.6,1130.8 z" /><path
         id="path112"
         style="fill:none;stroke:#000000;stroke-width:26.65329933;stroke-linecap:butt;stroke-linejoin:miter;stroke-miterlimit:4;stroke-dasharray:none;stroke-opacity:1"
         d="m 14336.6,15659.2 5.9,-1045.6 c -314.1,742.5 -160.9,902.3 -484.6,1130.8 z" /><g
         transform="scale(1.13594)"
         id="g114"><path
           id="path116"
           style="fill:#000000;fill-opacity:1;fill-rule:nonzero;stroke:none"
           d="m 15878.6,13785.3 -5.2,-920.5 c 276.5,653.6 141.7,794.4 426.6,995.5 z" /></g><g
         transform="scale(1.13594)"
         id="g118"><path
           id="path120"
           style="fill:none;stroke:#000000;stroke-width:23.46369934;stroke-linecap:butt;stroke-linejoin:miter;stroke-miterlimit:4;stroke-dasharray:none;stroke-opacity:1"
           d="m 15878.6,13785.3 -5.2,-920.5 c 276.5,653.6 141.7,794.4 426.6,995.5 z" /></g><path
         id="path122"
         style="fill:#000000;fill-opacity:1;fill-rule:nonzero;stroke:none"
         d="m 4000,15803.6 c 523.48,-2516.1 -909.69,-3329.5 441.25,-4224.5 0,0 1364.96,-1673.9 1415.74,354.6 l 50.78,2028.5 z" /><path
         id="path124"
         style="fill:none;stroke:#000000;stroke-width:27.39710045;stroke-linecap:butt;stroke-linejoin:miter;stroke-miterlimit:4;stroke-dasharray:none;stroke-opacity:1"
         d="m 4000,15803.6 c 523.48,-2516.1 -909.69,-3329.5 441.25,-4224.5 0,0 1364.96,-1673.9 1415.74,354.6 l 50.78,2028.5 z" /><path
         id="path126"
         style="fill:#000000;fill-opacity:1;fill-rule:nonzero;stroke:none"
         d="m 8653.09,15803.6 c -523.48,-2516.1 909.68,-3329.5 -441.25,-4224.5 0,0 -1364.96,-1673.9 -1415.75,354.6 l -50.78,2028.5 z" /><path
         id="path128"
         style="fill:none;stroke:#000000;stroke-width:27.39710045;stroke-linecap:butt;stroke-linejoin:miter;stroke-miterlimit:4;stroke-dasharray:none;stroke-opacity:1"
         d="m 8653.09,15803.6 c -523.48,-2516.1 909.68,-3329.5 -441.25,-4224.5 0,0 -1364.96,-1673.9 -1415.75,354.6 l -50.78,2028.5 z" /><path
         id="path130"
         style="fill:#1a1a1a;fill-opacity:1;fill-rule:nonzero;stroke:none"
         d="m 5131.02,8876.76 -605.51,-263.99 c 0,0 -1148.95,-1692.34 -1568.13,-2437.61 0,0 -170.78,-2064.96 1770,-1832.07 543.4,93.16 1599.14,791.79 1599.14,791.79 0,0 1055.82,-698.63 1599.22,-791.79 C 9866.52,4110.2 9695.7,6175.16 9695.7,6175.16 9276.52,6920.43 8127.58,8612.77 8127.58,8612.77 l -605.51,263.99 -1195.55,-403.71 z" /><path
         id="path132"
         style="fill:none;stroke:#000000;stroke-width:21.73660088;stroke-linecap:butt;stroke-linejoin:miter;stroke-miterlimit:4;stroke-dasharray:none;stroke-opacity:1"
         d="m 5131.02,8876.76 -605.51,-263.99 c 0,0 -1148.95,-1692.34 -1568.13,-2437.61 0,0 -170.78,-2064.96 1770,-1832.07 543.4,93.16 1599.14,791.79 1599.14,791.79 0,0 1055.82,-698.63 1599.22,-791.79 C 9866.52,4110.2 9695.7,6175.16 9695.7,6175.16 9276.52,6920.43 8127.58,8612.77 8127.58,8612.77 l -605.51,263.99 -1195.55,-403.71 z" /><path
         id="path134"
         style="fill:#fcb9b2;fill-opacity:1;fill-rule:nonzero;stroke:none"
         d="m 6298.83,11484.2 1036.95,1608.7 -1898.63,13.8 c 0,0 -1638.01,-838.5 861.68,-1622.5 z" /><path
         id="path136"
         style="fill:#e9e9e9;fill-opacity:1;fill-rule:nonzero;stroke:none"
         d="m 7335.78,13092.9 c 0,0 -362.46,-642.3 -1009.26,-1306.7 -465.62,499.7 -1003.67,1186 -1003.67,1186 l -222.85,34.5 c 0,0 -928.48,-549.6 -1254.53,-968.8 -481.33,-496.9 -888.09,-1934.6 -888.09,-1934.6 108.67,-1692.36 388.17,-2002.91 636.6,-1925.25 l 931.53,434.72 c 667.61,-139.76 1801.01,-139.72 1801.01,-139.72 0,0 1133.44,-0.04 1801.06,139.72 l 931.56,-434.72 c 248.44,-77.66 527.89,232.89 636.56,1925.25 0,0 -406.75,1437.7 -888.08,1934.6 -326.06,419.2 -1254.5,968.8 -1254.5,968.8 z" /><path
         id="path138"
         style="fill:#b3b3b3;fill-opacity:1;fill-rule:nonzero;stroke:none"
         d="M 7335.74,13394.8 H 5317.34 L 5100,13006.7 h 2453.12 z" /><path
         id="path140"
         style="fill:#fcb9b2;fill-opacity:1;fill-rule:nonzero;stroke:none"
         d="m 5907.77,13527.5 -190.11,-731.6 6.99,-79.6 c 0.04,-0.3 0,-0.4 0.04,-0.5 24.49,-149.5 132.19,-474 601.83,-679.5 469.69,205.5 577.35,530 601.84,679.5 0.04,0.1 0,0.2 0.04,0.5 l 7.07,79.6 -190.16,731.6 -418.79,-68.5 z" /><path
         id="path142"
         style="fill:#c0c0c0;fill-opacity:1;fill-rule:nonzero;stroke:none"
         d="m 5100,13006.7 1226.56,-1946.2 v 725.8 l -1009.22,1608.5 z" /><path
         id="path144"
         style="fill:#c0c0c0;fill-opacity:1;fill-rule:nonzero;stroke:none"
         d="M 7335.74,13394.8 6326.56,11786.3 4711.84,9094.1 l 416.75,-42.69 2424.53,3955.29 z" /><g
         transform="scale(1.11571)"
         id="g146"><path
           id="path148"
           style="fill:#000000;fill-opacity:1;fill-rule:nonzero;stroke:none"
           d="m 7819.63,14173.5 c 0,-1174.5 -962.25,-2126.5 -2149.24,-2126.5 -1186.94,0 -2149.2,952 -2149.2,2126.5 0,1174.4 962.26,2126.5 2149.2,2126.5 1186.99,0 2149.24,-952.1 2149.24,-2126.5 z" /></g><path
         id="path150"
         style="fill:#fbaba3;fill-opacity:1;fill-rule:nonzero;stroke:none"
         d="m 6326.52,13642.4 c 329.57,0 463.79,-51.9 463.79,-277.4 0,-63.2 73.95,-249.8 74.38,-307.5 -96.25,-137 -301.06,-231.6 -538.17,-231.6 z" /><path
         id="path152"
         style="fill:#fbaba3;fill-opacity:1;fill-rule:nonzero;stroke:none"
         d="m 6326.52,13642.4 c -329.53,0 -463.75,-51.9 -463.75,-277.4 0,-63.2 -73.94,-249.8 -74.37,-307.5 96.25,-137 301.05,-231.6 538.12,-231.6 z" /><g
         transform="scale(1.08551)"
         id="g154"><path
           id="path156"
           style="fill:#fcb9b2;fill-opacity:1;fill-rule:nonzero;stroke:none"
           d="m 5828.21,16300 c 0,0 -1977.47,-447.1 -1941.41,-2141.7 -531.79,-36.1 -567.86,-957.3 198.31,-1002.4 0,0 504.01,-1013.1 1743.1,-1013.1 1239.05,0 1743.07,1013.1 1743.07,1013.1 766.17,45.1 730.11,966.3 198.32,1002.4 36.06,1694.6 -1941.39,2141.7 -1941.39,2141.7 z" /></g><path
         id="path158"
         style="fill:#000000;fill-opacity:1;fill-rule:nonzero;stroke:none"
         d="m 5643.59,15170.9 c 0,-129.9 -86.75,-235.2 -193.75,-235.2 -106.99,0 -193.71,105.3 -193.71,235.2 0,130 86.72,235.3 193.71,235.3 107,0 193.75,-105.3 193.75,-235.3 z" /><path
         id="path160"
         style="fill:#000000;fill-opacity:1;fill-rule:nonzero;stroke:none"
         d="m 7396.95,15170.9 c 0,-129.9 -86.72,-235.2 -193.71,-235.2 -106.99,0 -193.71,105.3 -193.71,235.2 0,130 86.72,235.3 193.71,235.3 106.99,0 193.71,-105.3 193.71,-235.3 z" /><path
         id="path162"
         style="fill:#ffffff;fill-opacity:1;fill-rule:nonzero;stroke:none"
         d="m 7086.21,14146.9 c 0,-192.3 -144.8,-370 -379.84,-466.2 -235.04,-96.1 -524.61,-96.1 -759.65,0 -235.04,96.2 -379.84,273.9 -379.84,466.2 z" /><g
         transform="scale(1.09483)"
         id="g164"><path
           id="path166"
           style="fill:#000000;fill-opacity:1;fill-rule:nonzero;stroke:none"
           d="m 7703.43,14037.7 c -1064.28,354.8 -1351.21,1092.5 -1351.21,1092.5 -925.44,-725 -1912.39,-151.6 -2498.53,-1092.5 -92.51,678.6 77,1185 77,1185 0,0 1200.06,1077.3 1847.85,938.5 L 7385.63,15670 c 0,0 456.59,-1046.2 317.8,-1632.3 z" /></g><g
         transform="scale(1.09483)"
         id="g168"><path
           id="path170"
           style="fill:none;stroke:#000000;stroke-width:25.02400017;stroke-linecap:butt;stroke-linejoin:miter;stroke-miterlimit:4;stroke-dasharray:none;stroke-opacity:1"
           d="m 7703.43,14037.7 c -1064.28,354.8 -1351.21,1092.5 -1351.21,1092.5 -925.44,-725 -1912.39,-151.6 -2498.53,-1092.5 -92.51,678.6 77,1185 77,1185 0,0 1200.06,1077.3 1847.85,938.5 L 7385.63,15670 c 0,0 456.59,-1046.2 317.8,-1632.3 z" /></g><path
         id="path172"
         style="fill:#000000;fill-opacity:1;fill-rule:nonzero;stroke:none"
         d="m 4468.36,15650.6 6.05,-2029.7 c -318.16,1441.3 -163.04,1751.6 -490.82,2195 z" /><path
         id="path174"
         style="fill:none;stroke:#000000;stroke-width:37.3716011;stroke-linecap:butt;stroke-linejoin:miter;stroke-miterlimit:4;stroke-dasharray:none;stroke-opacity:1"
         d="m 4468.36,15650.6 6.05,-2029.7 c -318.16,1441.3 -163.04,1751.6 -490.82,2195 z" /><path
         id="path176"
         style="fill:#000000;fill-opacity:1;fill-rule:nonzero;stroke:none"
         d="m 8184.73,15650.6 -6.06,-2029.7 c 318.17,1441.3 163.05,1751.6 490.82,2195 z" /><path
         id="path178"
         style="fill:none;stroke:#000000;stroke-width:37.3716011;stroke-linecap:butt;stroke-linejoin:miter;stroke-miterlimit:4;stroke-dasharray:none;stroke-opacity:1"
         d="m 8184.73,15650.6 -6.06,-2029.7 c 318.17,1441.3 163.05,1751.6 490.82,2195 z" /><path
         id="path180"
         style="fill:#000000;fill-opacity:1;fill-rule:nonzero;stroke:none"
         d="m 5503.63,7122.27 c 0,0 496.88,-194.07 621.1,-380.39 341.56,-1016.96 -683.17,-1630.24 -683.17,-1630.24 l 884.96,364.84 885.04,-364.84 c 0,0 -1024.72,613.28 -683.16,1630.24 124.22,186.32 621.05,380.39 621.05,380.39 z" /><path
         id="path182"
         style="fill:#fcb9b2;fill-opacity:1;fill-rule:nonzero;stroke:none"
         d="m 4378.01,8791.33 c -535.63,186.33 -939.34,-333.83 -939.34,-333.83 0,0 434.77,-675.39 690.94,-853.91 69.84,-287.26 279.45,-558.94 279.45,-558.94 l 155.28,-388.17 c 496.83,-419.21 1218.78,209.61 1086.83,543.4 -23.28,388.17 -295,605.55 -295,605.55 -372.62,225.12 -721.95,279.45 -721.95,279.45 -201.88,333.83 -256.21,706.45 -256.21,706.45 z" /><path
         id="path184"
         style="fill:#fcb9b2;fill-opacity:1;fill-rule:nonzero;stroke:none"
         d="m 8203.12,8791.33 c 535.67,186.33 939.34,-333.83 939.34,-333.83 0,0 -434.73,-675.39 -690.9,-853.91 -69.88,-287.26 -279.49,-558.94 -279.49,-558.94 L 8016.8,6656.48 c -496.84,-419.21 -1218.79,209.61 -1086.8,543.4 23.28,388.17 295,605.55 295,605.55 372.62,225.12 721.95,279.45 721.95,279.45 201.84,333.83 256.17,706.45 256.17,706.45 z" /><path
         id="path186"
         style="fill:#000000;fill-opacity:1;fill-rule:nonzero;stroke:none"
         d="m 4525.51,9128.67 c 201.83,-357.11 0,-559.37 0,-559.37 0,0 867.85,-150.71 1801.01,-139.73 933.21,-10.98 1801.06,139.73 1801.06,139.73 0,0 -201.84,202.26 0,559.37 0,0 -560.47,-196.76 -1801.06,-196.76 -1240.58,0 -1801.01,196.76 -1801.01,196.76 z" /><path
         id="path188"
         style="fill:#c0c0c0;fill-opacity:1;fill-rule:nonzero;stroke:none"
         d="m 4525.51,9172.15 -181.88,790.47 164.69,636.78 c 0,0 0,-489.5 116.45,-730.18 z" /><path
         id="path190"
         style="fill:#c0c0c0;fill-opacity:1;fill-rule:nonzero;stroke:none"
         d="m 8127.58,9128.67 181.87,790.47 -164.65,636.76 c 0,0 -0.03,-489.5 -116.48,-730.16 z" /></g></g></svg>